<?xml version="1.0" standalone="no"?>
<!DOCTYPE svg PUBLIC "-//W3C//DTD SVG 20010904//EN"
 "http://www.w3.org/TR/2001/REC-SVG-20010904/DTD/svg10.dtd">
<svg version="1.0" xmlns="http://www.w3.org/2000/svg"
 width="234.000000pt" height="213.000000pt" viewBox="0 0 234.000000 213.000000"
 preserveAspectRatio="xMidYMid meet">
<metadata>
Created by potrace 1.16, written by Peter Selinger 2001-2019
</metadata>
<g transform="translate(0.000000,213.000000) scale(0.100000,-0.100000)"
fill="#000000" stroke="none">
<path d="M985 1925 c-272 -60 -501 -237 -624 -482 -106 -211 -120 -489 -37
-718 56 -155 185 -323 322 -421 133 -95 318 -160 484 -171 103 -7 273 23 379
66 309 126 521 407 561 743 52 443 -240 863 -678 974 -76 19 -119 24 -221 23
-69 0 -153 -7 -186 -14z m363 -51 c149 -30 291 -105 405 -213 113 -107 182
-215 233 -368 35 -104 45 -308 20 -426 -64 -311 -299 -560 -616 -653 -90 -26
-335 -26 -430 0 -302 83 -526 304 -612 603 -33 113 -33 333 0 446 90 312 335
543 647 612 84 19 260 18 353 -1z"/>
<path d="M994 1825 c-234 -51 -455 -229 -553 -447 -58 -127 -66 -170 -66 -338
1 -148 2 -159 32 -247 55 -157 131 -269 254 -373 132 -110 286 -168 470 -177
235 -11 424 58 592 216 163 154 248 349 249 571 0 237 -85 438 -255 596 -115
106 -233 169 -375 199 -83 18 -267 18 -348 0z m-227 -430 c28 -32 43 -85 43
-158 0 -54 1 -58 22 -55 33 4 37 -29 5 -37 -23 -6 -25 -12 -32 -89 -7 -94 -21
-130 -51 -134 -40 -6 -48 20 -35 114 7 48 11 88 9 89 -2 2 -32 5 -67 7 l-63 3
-22 -90 c-32 -129 -64 -185 -96 -165 -12 8 -13 13 -2 27 6 10 17 29 23 43 15
36 42 171 35 177 -3 4 -17 1 -30 -6 -13 -8 -29 -10 -36 -6 -16 10 15 42 49 50
24 5 28 13 44 84 21 92 49 139 97 164 42 21 77 15 107 -18z m314 -266 c19 -19
21 -28 15 -90 -7 -63 -6 -69 12 -69 10 0 29 16 43 37 57 87 134 101 330 63
187 -37 303 -29 330 22 15 28 63 21 67 -10 4 -29 -20 -58 -70 -83 -54 -27
-154 -25 -269 6 -52 14 -131 33 -175 42 -76 15 -85 15 -125 0 -33 -13 -51 -28
-71 -62 -22 -36 -33 -45 -55 -45 -16 0 -33 4 -40 8 -19 12 -33 60 -33 113 0
64 -18 61 -43 -7 -31 -82 -50 -92 -92 -49 -42 41 -27 133 21 123 16 -3 19 -12
17 -51 -1 -26 2 -47 6 -47 4 0 15 23 25 50 26 72 66 90 107 49z"/>
<path d="M661 1334 c-21 -27 -51 -112 -51 -145 0 -13 12 -18 58 -22 31 -2 61
-2 66 1 4 2 6 40 4 83 -6 107 -34 137 -77 83z"/>
</g>
</svg>
